HIERARCHY
ROOT hip
{
	OFFSET 0.000000 0.000000 0.000000 
	CHANNELS 6 Xposition Yposition Zposition Xrotation Zrotation Yrotation
	JOINT abdomen
	{
		OFFSET 0.000000 3.402643 0.000000 
		CHANNELS 3 Xrotation Zrotation Yrotation
		JOINT chest
		{
			OFFSET 0.000000 8.438565 -0.680529 
			CHANNELS 3 Xrotation Zrotation Yrotation
			JOINT neck
			{
				OFFSET 0.000000 10.207942 -0.272212 
				CHANNELS 3 Xrotation Zrotation Yrotation
				JOINT head
				{
					OFFSET 0.000000 3.130431 0.000000 
					CHANNELS 3 Xrotation Zrotation Yrotation
					End Site
					{
						OFFSET 0.000000 3.130435 0.000000 
					}
				}
			}
			JOINT lCollar
			{
				OFFSET 3.470700 6.669187 -0.816635 
				CHANNELS 3 Yrotation Zrotation Xrotation
				JOINT lShldr
				{
					OFFSET 3.198488 0.000000 0.000000 
					CHANNELS 3 Zrotation Yrotation Xrotation
					JOINT lForeArm
					{
						OFFSET 10.139888 0.000000 0.000000 
						CHANNELS 3 Yrotation Zrotation Xrotation
						JOINT lHand
						{
							OFFSET 8.370511 0.000000 0.000000 
							CHANNELS 3 Zrotation Yrotation Xrotation
							End Site
							{
								OFFSET 4.083176 0.000000 0.000000 
							}
						}
					}
				}
			}
			JOINT rCollar
			{
				OFFSET -3.470700 6.669187 -0.816635 
				CHANNELS 3 Yrotation Zrotation Xrotation
				JOINT rShldr
				{
					OFFSET -3.198488 0.000000 0.000000 
					CHANNELS 3 Zrotation Yrotation Xrotation
					JOINT rForeArm
					{
						OFFSET -10.139888 0.000000 0.000000 
						CHANNELS 3 Yrotation Zrotation Xrotation
						JOINT rHand
						{
							OFFSET -8.370511 0.000000 0.000000 
							CHANNELS 3 Zrotation Yrotation Xrotation
							End Site
							{
								OFFSET -4.083176 0.000000 0.000000 
							}
						}
					}
				}
			}
		}
	}
	JOINT lThigh
	{
		OFFSET 5.308129 -1.633274 1.361059 
		CHANNELS 3 Xrotation Zrotation Yrotation
		JOINT lShin
		{
			OFFSET -2.041588 -20.007561 0.000000 
			CHANNELS 3 Xrotation Zrotation Yrotation
			JOINT lFoot
			{
				OFFSET 0.000000 -19.190928 -1.224953 
				CHANNELS 3 Xrotation Yrotation Zrotation
				End Site
				{
					OFFSET 0.000000 -2.449906 4.627600 
				}
			}
		}
	}
	JOINT rThigh
	{
		OFFSET -5.308129 -1.633274 1.361059 
		CHANNELS 3 Xrotation Zrotation Yrotation
		JOINT rShin
		{
			OFFSET 2.041588 -20.007561 0.000000 
			CHANNELS 3 Xrotation Zrotation Yrotation
			JOINT rFoot
			{
				OFFSET 0.000000 -19.190928 -1.224953 
				CHANNELS 3 Xrotation Yrotation Zrotation
				End Site
				{
					OFFSET 0.000000 -2.449906 4.627600 
				}
			}
		}
	}
}
MOTION
Frames: 18
Frame Time: 0.033333
0.098516 53.161636 0.162215 -4.238281 3.496094 -137.900391 29.358963 -9.916286 -3.363662 -22.792969 11.005860 1.748047 51.553619 8.070152 2.616707 -84.003906 -6.025390 7.558593 2.000000 -2.000000 0.000000 -30.654295 40.898438 -4.075635 -76.753281 -0.243710 -2.554396 -6.259916 20.805927 -4.173366 -2.000000 2.000000 0.000000 38.613281 -27.392578 -6.801367 89.952095 -0.358361 -3.136825 -9.922754 -55.931675 14.812315 -2.754724 12.088431 31.593105 0.851046 -5.782043 -0.351958 8.409997 1.572848 -5.152339 -5.571853 -1.413704 -12.150299 3.481453 6.202644 0.130928 4.119362 -12.575593 1.952837 
0.215418 53.090473 0.315054 -3.525390 2.978516 -137.118622 29.909214 -9.814754 -3.521997 -22.822268 9.785156 1.250000 51.553619 8.070152 2.616707 -83.964844 -4.648437 7.246094 2.000000 -2.000000 0.000000 -30.263674 38.769531 -4.238281 -76.413406 -0.062437 -2.633393 -4.966822 20.367290 -3.123126 -2.000000 2.000000 0.000000 37.783203 -26.767580 -7.041015 90.127594 -0.358925 -3.127079 -10.602318 -57.101162 15.158957 -3.340316 12.284070 31.030334 2.246402 -5.772460 -0.533842 7.912335 1.046466 -4.905421 -5.231273 -1.531193 -12.683165 4.027669 6.075945 0.179136 3.701734 -13.033123 2.259897 
0.248331 53.050934 0.395258 -3.017578 2.617188 -136.201172 30.284346 -9.725780 -3.676290 -22.656250 9.248047 0.870710 51.553619 8.070152 2.616707 -83.642578 -3.642578 7.099609 2.000000 -2.000000 0.000000 -30.498049 37.197266 -4.423828 -76.226479 -0.225344 -2.575022 -4.034829 19.951782 -2.492217 -2.000000 2.000000 0.000000 37.519535 -26.572266 -6.869602 90.312439 -0.575356 -2.768187 -11.088541 -57.594997 15.592509 -3.310943 12.402565 30.664999 3.324354 -5.761552 -0.608980 7.530873 0.419987 -4.640594 -4.822644 -1.463878 -13.198755 4.555685 5.677200 0.364701 2.965787 -13.379414 2.680222 
0.206605 53.035114 0.372129 -2.646484 2.275391 -135.458588 30.331652 -9.402981 -3.894275 -22.656252 9.423829 0.888672 51.553619 8.070152 2.616707 -82.910156 -3.437499 7.236329 2.000000 -2.000000 0.000000 -31.044920 36.083984 -4.857529 -76.225082 -0.407747 -2.515517 -3.665567 19.442097 -2.409022 -2.000000 2.000000 0.000000 36.875004 -26.328125 -6.664487 90.132629 -0.524499 -2.970490 -10.581739 -57.647915 14.986227 -3.145744 12.592548 30.340414 3.828922 -5.746434 -0.663314 7.196910 0.389499 -4.398758 -4.431673 -1.336866 -12.822547 4.920844 5.721919 0.065954 2.702519 -13.668774 2.569188 
0.082399 53.035114 0.291625 -2.314453 2.089844 -135.097656 30.017233 -9.234210 -4.204721 -22.460938 9.775391 0.958689 51.553619 8.070152 2.616707 -82.197266 -3.535156 7.704475 2.000000 -2.000000 0.000000 -31.679688 35.371094 -4.560546 -76.764427 -0.071055 -2.613334 -4.019832 19.258333 -2.376146 -2.000000 2.000000 0.000000 36.777344 -26.162109 -6.586337 90.117607 -0.184000 -3.107213 -11.189619 -57.723152 14.918228 -2.648364 12.668186 29.863480 3.497469 -5.783829 -0.644288 7.166234 0.382061 -4.391188 -3.813740 -1.802541 -13.531613 4.909235 6.033370 0.384746 2.567451 -13.468319 3.114305 
-0.051952 53.058834 0.151333 -2.314453 2.089844 -134.921875 29.636618 -8.088152 -5.170228 -22.451174 10.292970 1.025391 51.553619 8.070152 2.616707 -81.357422 -3.798828 8.105469 2.000000 -2.000000 0.000000 -32.646484 34.775391 -4.906538 -77.469795 0.032552 -2.345573 -4.909708 18.980188 -3.452578 -2.000000 2.000000 0.000000 36.494141 -25.917969 -6.312862 90.127594 -0.358925 -3.127079 -11.631242 -57.747932 15.085600 -1.954868 12.543544 30.319845 2.626737 -5.791860 -0.566567 7.493696 0.181540 -4.510071 -3.518792 -1.536849 -14.065168 4.555685 5.677203 0.364701 2.295085 -13.436061 2.682642 
-0.150004 53.074650 0.033793 -2.470703 2.275407 -134.931473 29.636618 -8.088152 -5.170228 -22.255861 10.810548 1.123047 51.553619 8.070152 2.616707 -80.673828 -4.052734 8.320313 2.000000 -2.000000 0.000000 -32.851559 34.433594 -4.681978 -78.180717 0.074617 -2.631588 -5.513788 18.671593 -4.138216 -2.000000 2.000000 0.000000 36.494141 -25.878906 -6.342153 89.952095 -0.358361 -3.136825 -12.205019 -57.589005 15.535187 -1.416871 12.106788 30.185560 1.546613 -5.776784 -0.442473 7.845637 0.634429 -4.806348 -3.142962 -1.521943 -14.261511 3.845829 5.690670 0.282990 2.303242 -12.985994 2.449030 
-0.203794 53.050934 -0.014809 -2.646484 2.451172 -134.941391 29.636618 -8.088152 -5.170228 -22.070313 11.142578 1.191406 51.553619 8.070152 2.616707 -80.341797 -4.248047 8.729746 2.000000 -2.000000 0.000000 -33.066406 34.082031 -4.892578 -78.526573 0.075884 -2.778324 -5.812139 18.400223 -4.463331 -2.000000 2.000000 0.000000 36.806641 -25.722656 -6.406250 89.952095 -0.358361 -3.136825 -11.910507 -57.223873 15.176374 -1.250323 11.973215 30.372581 0.690993 -5.764266 -0.337433 8.345395 0.120976 -4.811655 -3.299713 -1.463996 -14.756573 3.317829 5.698325 0.383138 2.476249 -12.646531 2.038961 
-0.230239 53.027203 0.048614 -3.017578 2.617188 -134.970703 29.636618 -8.088152 -5.170228 -22.060549 11.318358 1.220703 51.553619 8.070152 2.616707 -80.332031 -4.091796 8.632813 2.000000 -2.000000 0.000000 -32.871094 33.535156 -5.058593 -78.886276 -0.105960 -2.709086 -5.880752 18.185858 -4.596281 -2.000000 2.000000 0.000000 37.539066 -26.347658 -7.279723 89.766594 -0.182873 -3.126704 -10.786479 -56.683182 14.811548 -1.594855 11.700330 30.159872 0.519704 -5.743438 -0.332892 8.331572 0.496336 -5.106768 -3.676238 -1.489354 -14.560777 4.032590 5.897579 -0.038457 2.213385 -12.412330 1.524607 
-0.273553 52.963943 0.231239 -3.173828 2.802735 -135.156250 29.636618 -8.088152 -5.170228 -22.236330 11.503907 1.210938 51.553619 8.070152 2.616707 -80.498047 -4.082031 8.642578 2.000000 -2.000000 0.000000 -32.304688 33.623047 -4.785157 -79.061783 -0.105394 -2.699341 -5.833721 18.087866 -4.970078 -2.000000 2.000000 0.000000 38.564453 -27.441406 -8.168565 89.581520 -0.202059 -2.795388 -8.460387 -55.332047 13.703469 -2.305322 11.971908 30.070219 1.545681 -5.786913 -0.413179 7.476989 0.952438 -5.202120 -4.840088 -1.754992 -15.242706 5.259837 5.691013 0.358385 1.226730 -11.760400 1.247619 
-0.306672 52.829494 0.502308 -3.359375 2.978516 -135.371094 29.636618 -8.088152 -5.170228 -22.236330 11.503907 1.210938 51.553619 8.070152 2.616707 -81.005859 -3.847656 8.427080 2.000000 -2.000000 0.000000 -31.894531 33.222656 -4.902343 -79.414162 0.048897 -2.737645 -5.911921 17.873573 -5.122019 -2.000000 2.000000 0.000000 39.160156 -28.173828 -8.388672 89.254898 -0.356505 -2.999885 -7.922985 -54.673290 13.974311 -3.545449 12.205753 29.759415 3.662759 -5.784606 -0.678477 6.579136 1.190765 -5.359947 -6.020086 -2.241625 -15.805669 7.750223 5.641374 0.691356 -0.145663 -11.469190 0.868929 
-0.262380 52.758331 0.861574 -3.349609 2.792969 -135.517105 29.636618 -8.088152 -5.170228 -22.226564 11.679688 1.415968 51.553619 8.070152 2.616707 -81.533203 -3.789063 8.466797 2.000000 -2.000000 0.000000 -31.308594 32.714844 -4.643158 -79.764366 -0.123761 -2.678716 -5.808402 17.657988 -5.264709 -2.000000 2.000000 0.000000 39.150391 -28.173830 -8.217500 89.254890 -0.366254 -3.000449 -8.106743 -55.202148 14.011741 -4.785656 12.613445 29.841995 6.143677 -5.767513 -0.945888 5.161222 1.201628 -5.366663 -7.164841 -2.712491 -16.112463 10.026835 5.606297 1.073005 -0.658289 -10.940580 0.918808 
-0.159967 52.647614 1.295166 -3.173828 2.617188 -135.673828 29.636618 -8.088152 -5.170228 -22.050781 11.669922 1.447288 51.553619 8.070152 2.616707 -81.855476 -3.583988 8.583972 2.000000 -2.000000 0.000000 -31.005859 32.265625 -4.457676 -80.283821 0.213504 -2.766752 -5.474756 17.499424 -5.247582 -2.000000 2.000000 0.000000 38.623051 -27.597656 -7.397100 89.079384 -0.375439 -3.010758 -8.472126 -56.220917 13.482661 -5.615499 13.082314 29.364941 8.610953 -5.687996 -1.197770 3.989433 1.484647 -4.938862 -8.316130 -3.394957 -16.057674 12.328027 5.603041 0.855435 -0.657944 -10.421860 0.879568 
0.067705 52.489464 1.877476 -2.314453 1.914063 -135.605148 29.636618 -8.088152 -5.170228 -21.865234 11.855470 1.494141 51.553619 8.070152 2.616707 -82.041016 -3.564453 9.100956 2.000000 -2.000000 0.000000 -30.849607 31.162113 -4.506664 -81.341278 0.013733 -2.500927 -5.019135 16.969110 -5.149677 -2.000000 2.000000 0.000000 37.773438 -26.308594 -7.041015 89.430389 -0.376567 -2.991267 -8.844399 -56.868782 12.990792 -6.328485 13.676959 28.891769 11.070195 -5.629653 -1.429005 4.211514 2.035597 -4.608187 -9.193975 -3.862789 -16.686855 15.327559 5.499158 1.573693 -0.871297 -10.295238 0.658173 
0.508442 52.188953 2.671741 -1.064453 0.869141 -135.371078 31.240780 -7.999293 -5.324528 -21.328127 11.826172 1.435547 51.553619 8.070152 2.616707 -82.714844 -3.330078 10.106854 2.000000 -2.000000 0.000000 -30.986328 28.828129 -4.643729 -82.756439 0.180300 -2.833273 -3.999171 16.191774 -4.659943 -2.000000 2.000000 0.000000 36.806641 -24.609373 -7.070312 90.313080 -0.514914 -3.136075 -7.677184 -56.712589 11.388505 -7.031489 14.254376 28.646973 14.651067 -5.614017 -1.498536 3.487051 2.113255 -3.928962 -9.911587 -4.384602 -16.845797 18.327587 5.370162 1.797645 -1.010900 -10.503392 1.152406 
1.120916 51.840996 3.626166 0.351563 -0.527343 -135.205139 33.866043 -7.618108 -5.281744 -20.429688 11.787109 1.623089 51.553619 8.070152 2.616707 -84.287109 -3.115234 11.786579 2.000000 -2.000000 0.000000 -31.113281 25.517576 -5.503606 -84.165154 -0.039266 -2.908538 -2.976705 15.571781 -4.216319 -2.000000 2.000000 0.000000 35.439453 -21.757813 -8.021196 92.063782 -0.490582 -2.880524 -6.441662 -56.371960 9.730130 -8.583900 15.182575 28.233782 18.654305 -5.449885 -2.061699 4.034980 2.886774 -2.988965 -10.290896 -4.988303 -16.111324 20.795483 5.350256 2.008737 -1.171921 -11.116334 2.030108 
1.719016 51.500961 4.612673 1.572266 -1.767578 -135.244446 36.487408 -7.486742 -5.159478 -19.531250 11.748048 1.621094 51.553619 8.070152 2.616707 -85.693359 -3.066406 13.534635 2.000000 -2.000000 0.000000 -31.250000 22.207029 -6.464844 -84.878815 0.310015 -2.958137 -2.421683 15.286455 -3.831007 -2.000000 2.000000 0.000000 33.828125 -18.173826 -8.925780 93.482826 -0.455126 -2.986033 -4.995025 -55.670727 7.917990 -10.205323 16.025778 27.785519 22.555576 -5.379242 -2.623888 5.836677 3.879769 -2.244869 -10.815443 -5.347133 -16.024342 22.903088 5.051107 2.118310 -1.021170 -10.584489 2.180238 
2.142928 51.232090 5.446939 2.636719 -2.646464 -135.498276 38.405735 -7.355376 -5.035948 -18.623047 11.884766 1.845703 51.553619 8.070152 2.616707 -85.751953 -3.359375 15.145912 2.000000 -2.000000 0.000000 -31.474611 19.765625 -7.460938 -84.703308 0.309451 -2.967881 -2.429712 15.696644 -3.703443 -2.000000 2.000000 0.000000 31.728518 -14.462892 -9.162596 94.710464 -0.636257 -2.898729 -4.480893 -55.482964 7.224407 -11.913343 16.732864 27.303320 26.371929 -5.131862 -2.965383 7.528928 5.202840 -1.791524 -11.396214 -5.810426 -14.976624 24.508247 5.175261 1.958221 -0.146998 -10.840959 2.909882 
